HIERARCHY
ROOT Hips
{
	OFFSET 0.00000 0.00000 0.00000
	CHANNELS 6 Xposition Yposition Zposition Zrotation Yrotation Xrotation 
	JOINT LHipJoint
	{
		OFFSET 0 0 0
		CHANNELS 3 Zrotation Yrotation Xrotation
		JOINT LeftHip
		{
			OFFSET 1.78158 -1.79992 1.25746
			CHANNELS 3 Zrotation Yrotation Xrotation
			JOINT LeftKnee
			{
				OFFSET 2.48433 -6.82566 0.00000
				CHANNELS 3 Zrotation Yrotation Xrotation
				JOINT LeftAnkle
				{
					OFFSET 2.69722 -7.41057 0.00000
					CHANNELS 3 Zrotation Yrotation Xrotation
					JOINT LeftToe
					{
						OFFSET 0.10733 -0.29489 1.75071
						CHANNELS 3 Zrotation Yrotation Xrotation
						End Site
						{
							OFFSET 0.00000 -0.00000 0.90224
						}
					}
				}
			}
		}
	}
	JOINT RHipJoint
	{
		OFFSET 0 0 0
		CHANNELS 3 Zrotation Yrotation Xrotation
		JOINT RightHip
		{
			OFFSET -1.91234 -1.79993 1.25746
			CHANNELS 3 Zrotation Yrotation Xrotation
			JOINT RightKnee
			{
				OFFSET -2.33122 -6.40498 0.00000
				CHANNELS 3 Zrotation Yrotation Xrotation
				JOINT RightAnkle
				{
					OFFSET -2.75667 -7.57390 0.00000
					CHANNELS 3 Zrotation Yrotation Xrotation
					JOINT RightToe
					{
						OFFSET -0.15946 -0.43811 1.78925
						CHANNELS 3 Zrotation Yrotation Xrotation
						End Site
						{
							OFFSET -0.00000 -0.00000 0.93158
						}
					}
				}
			}
		}
	}
	JOINT lowerback
	{
		OFFSET 0 0 0
		CHANNELS 3 Zrotation Yrotation Xrotation
		JOINT Chest
		{
			OFFSET -0.02267 2.03993 -0.26238
			CHANNELS 3 Zrotation Yrotation Xrotation
			JOINT Chest2
			{
				OFFSET 0.02263 2.06220 -0.00892
				CHANNELS 3 Zrotation Yrotation Xrotation
				JOINT lowerneck
				{
					OFFSET 0 0 0
					CHANNELS 3 Zrotation Yrotation Xrotation
					JOINT Neck
					{
						OFFSET -0.06177 1.95978 0.28606
						CHANNELS 3 Zrotation Yrotation Xrotation
						JOINT Head
						{
							OFFSET 0.08482 1.96576 -0.43252
							CHANNELS 3 Zrotation Yrotation Xrotation
							End Site
							{
								OFFSET 0.02787 2.02739 -0.18071
							}
						}
					}
				}
				JOINT LeftCollar
				{
					OFFSET 0 0 0
					CHANNELS 3 Zrotation Yrotation Xrotation
					JOINT LeftShoulder
					{
						OFFSET 3.80978 1.64906 0.29973
CHANNELS 3 Zrotation Xrotation Yrotation
						JOINT LeftElbow
						{
OFFSET 0 -4.930420 0.000000
CHANNELS 3 Zrotation Xrotation Yrotation
							JOINT LeftWrist
							{
OFFSET 0 -3.681770 0.000000
CHANNELS 3 Zrotation Xrotation Yrotation
								JOINT lhand
								{
									OFFSET 0 0 0
CHANNELS 3 Zrotation Xrotation Yrotation
									JOINT LFingers
									{
OFFSET 0 -0.721480 0.000000
CHANNELS 3 Zrotation Xrotation Yrotation
										End Site
										{
OFFSET 0 -0.581680 0.000000
										}
									}
								}
								JOINT LThumb
								{
OFFSET 0 0.000000 0.000000
CHANNELS 3 Zrotation Xrotation Yrotation
									End Site
									{
OFFSET 0 -0.590560 0.590560
									}
								}
							}
						}
					}
				}
				JOINT RightCollar
				{
					OFFSET 0 0 0
					CHANNELS 3 Zrotation Yrotation Xrotation
					JOINT RightShoulder
					{
						OFFSET -3.49270 1.85636 0.09297
CHANNELS 3 Zrotation Xrotation Yrotation
						JOINT RightElbow
						{
OFFSET 0 -5.079050 -0.000000
CHANNELS 3 Zrotation Xrotation Yrotation
							JOINT RightWrist
							{
OFFSET 0 -3.543940 0.000000
CHANNELS 3 Zrotation Xrotation Yrotation
								JOINT rhand
								{
									OFFSET 0 0 0
CHANNELS 3 Zrotation Xrotation Yrotation
									JOINT RFingers
									{
OFFSET 0 -0.681160 0.000000
CHANNELS 3 Zrotation Xrotation Yrotation
										End Site
										{
OFFSET 0 -0.549170 0.000000
										}
									}
								}
								JOINT RThumb
								{
OFFSET 0 0.000000 0.000000
CHANNELS 3 Zrotation Xrotation Yrotation
									End Site
									{
OFFSET 0 -0.557550 0.557550
									}
								}
							}
						}
					}
				}
			}
		}
	}
}
MOTION
Frames: 11
Frame Time: 0.008333333333333333
-11.464000 17.980900 -16.699000 172.316000 86.386200 174.275000 0.000000 0.000000 0.000000 -15.364200 -15.746600 -7.810500 1.596200 7.968900 22.619700 0.805100 3.916400 -18.809400 3.056300 -10.785700 -31.560400 0.000000 0.000000 0.000000 10.873100 -8.751000 1.931700 0.000000 0.000000 -0.000000 -0.016500 -5.494700 -8.321100 -0.652100 5.165200 -14.380300 0.407200 0.468900 8.896000 0.739600 0.719100 -0.701000 0.443800 0.356700 -5.731900 -6.101200 -4.573200 -20.279700 1.332600 -4.068600 34.898900 0.934400 -2.002300 16.007800 0.000000 0.000000 0.000000 -0.133000 1.184300 -25.564100 20.239000 -30.929200 5.653700 36.452800 -11.155400 -5.183300 0.000000 0.000000 0.000000 -7.125000 0.000000 0.000000 8.222100 36.308600 1.771900 0.000000 0.000000 0.000000 -5.572700 4.543300 14.070100 -17.364000 -27.335100 -4.253100 -19.148100 26.993900 12.882000 0.000000 0.000000 0.000000 7.125000 0.000000 -0.000000 7.446800 43.464400 0.283900
-11.435472 17.979533 -16.672671 172.235766 86.228169 174.159701 0.000000 0.000000 0.000000 -15.356890 -15.905760 -7.591194 1.585918 7.944354 22.545231 0.809023 3.983677 -18.888623 3.060995 -10.793129 -31.585362 0.000000 0.000000 0.000000 10.915594 -8.950515 2.045632 0.000000 0.000000 0.000000 -0.022503 -5.427423 -8.397114 -0.617748 5.028506 -13.990126 0.484403 0.457132 8.755561 0.787324 0.713335 -0.767208 0.451764 0.352183 -5.721618 -6.194449 -4.552755 -20.287426 1.388882 -4.030742 34.779857 0.980995 -1.992672 15.953895 0.000000 0.000000 0.000000 -0.758348 0.920955 -24.145568 19.206303 -29.660437 5.139372 36.311291 -10.279545 -4.940935 0.000000 0.000000 0.000000 -7.125000 0.000000 0.000000 8.085168 36.003474 1.801913 0.000000 0.000000 0.000000 -5.763419 4.621691 14.378495 -17.183504 -27.098619 -4.170786 -18.988762 27.009590 12.834930 0.000000 0.000000 0.000000 7.125000 0.000000 0.000000 7.580523 43.398133 0.301670
-11.407266 17.978845 -16.645909 172.211372 86.069686 174.114768 0.000000 0.000000 0.000000 -15.339959 -16.071126 -7.383717 1.574354 7.916696 22.461349 0.811492 4.064594 -18.961716 3.071425 -10.809689 -31.640846 0.000000 0.000000 0.000000 10.969803 -9.149331 2.147924 0.000000 0.000000 0.000000 -0.028562 -5.366144 -8.482296 -0.576982 4.861495 -13.514401 0.544438 0.446195 8.607407 0.840481 0.707080 -0.840433 0.475159 0.348044 -5.714562 -6.276889 -4.532367 -20.294077 1.445769 -3.998014 34.655268 1.024892 -1.983704 15.896896 0.000000 0.000000 0.000000 -1.385846 0.665873 -22.648596 18.178699 -28.376866 4.638325 36.195401 -9.349774 -4.703814 0.000000 0.000000 0.000000 -7.125000 0.000000 0.000000 7.970288 35.706498 1.834606 0.000000 0.000000 0.000000 -5.967908 4.712043 14.705716 -16.997895 -26.854685 -4.086548 -18.838837 26.997379 12.784633 0.000000 0.000000 0.000000 7.125000 0.000000 0.000000 7.705059 43.329602 0.319724
-11.379748 17.979618 -16.618214 172.307058 85.910229 174.221152 0.000000 0.000000 0.000000 -15.302338 -16.249840 -7.201676 1.560030 7.882344 22.357223 0.810839 4.174841 -19.021624 3.094188 -10.845883 -31.761970 0.000000 0.000000 0.000000 11.049205 -9.346647 2.225186 0.000000 0.000000 0.000000 -0.034743 -5.317766 -8.587194 -0.522423 4.629293 -12.854702 0.567558 0.437042 8.442660 0.905322 0.699769 -0.928750 0.531739 0.344715 -5.714443 -6.336084 -4.512101 -20.298416 1.503953 -3.976322 34.518751 1.062988 -1.976156 15.833244 0.000000 0.000000 0.000000 -2.017969 0.428559 -20.982944 17.162049 -27.061449 4.165838 36.134602 -8.304061 -4.477971 0.000000 0.000000 0.000000 -7.125000 0.000000 0.000000 7.902833 35.427047 1.873058 0.000000 0.000000 0.000000 -6.202013 4.828114 15.073425 -16.801293 -26.594728 -3.998172 -18.709156 26.925169 12.727400 0.000000 0.000000 0.000000 7.125000 0.000000 0.000000 7.809838 43.256203 0.338385
-11.352609 17.981070 -16.589952 172.467639 85.741264 174.409409 0.000000 0.000000 0.000000 -15.253700 -16.449493 -7.038348 1.546273 7.849086 22.256607 0.809204 4.299841 -19.081569 3.126986 -10.897622 -31.935575 0.000000 0.000000 0.000000 11.142189 -9.553470 2.290828 0.000000 0.000000 0.000000 -0.041943 -5.276217 -8.723333 -0.470468 4.394940 -12.191191 0.566077 0.421589 8.271575 0.972653 0.681820 -1.027668 0.606127 0.337011 -5.722097 -6.367547 -4.488401 -20.303509 1.562213 -3.960930 34.376576 1.094897 -1.967627 15.766536 0.000000 0.000000 0.000000 -2.608929 0.230485 -19.245379 16.185958 -25.760784 3.732891 36.141414 -7.224694 -4.296271 0.000000 0.000000 0.000000 -7.125000 0.000000 0.000000 7.894990 35.204945 1.914567 0.000000 0.000000 0.000000 -6.458905 4.968899 15.518591 -16.599371 -26.326055 -3.908287 -18.634748 26.772783 12.707368 0.000000 0.000000 0.000000 7.125000 0.000000 0.000000 7.872511 43.227400 0.346671
-11.325686 17.982912 -16.561365 172.665549 85.566830 174.644761 0.000000 0.000000 0.000000 -15.198725 -16.661191 -6.885785 1.532841 7.816458 22.158008 0.807005 4.433326 -19.141536 3.165558 -10.958302 -32.139368 0.000000 0.000000 0.000000 11.242987 -9.765762 2.349785 0.000000 0.000000 0.000000 -0.049728 -5.238596 -8.877441 -0.420010 4.159350 -11.525489 0.550446 0.402511 8.096844 1.041416 0.657749 -1.132685 0.690759 0.326788 -5.734221 -6.383059 -4.462726 -20.309036 1.620516 -3.949162 34.231145 1.123246 -1.958534 15.698069 0.000000 0.000000 0.000000 -3.176211 0.054981 -17.466449 15.233197 -24.468605 3.322688 36.187118 -6.125967 -4.139964 0.000000 0.000000 0.000000 -7.125000 0.000000 0.000000 7.921437 35.015831 1.957834 0.000000 0.000000 0.000000 -6.728907 5.123898 16.008314 -16.394388 -26.052369 -3.817534 -18.592135 26.574279 12.708735 0.000000 0.000000 0.000000 7.125000 0.000000 0.000000 7.910964 43.224250 0.348989
-11.298876 17.984641 -16.533231 172.927977 85.371229 174.957082 0.000000 0.000000 0.000000 -15.141204 -16.924220 -6.730223 1.519523 7.783943 22.059863 0.804863 4.588147 -19.217463 3.207356 -11.023171 -32.358273 0.000000 0.000000 0.000000 11.348708 -10.000070 2.400479 0.000000 0.000000 0.000000 -0.060061 -5.189148 -9.074278 -0.383983 3.976393 -11.010667 0.522025 0.365436 7.920075 1.104973 0.608438 -1.246248 0.780144 0.304681 -5.753646 -6.362577 -4.429354 -20.321694 1.680008 -3.940564 34.083337 1.144974 -1.946045 15.629320 0.000000 0.000000 0.000000 -3.637265 -0.036990 -15.725890 14.370704 -23.252829 2.978758 36.323259 -5.101379 -4.080037 0.000000 0.000000 0.000000 -7.125000 0.000000 0.000000 8.029890 34.948451 1.998441 0.000000 0.000000 0.000000 -7.018829 5.299725 16.604038 -16.186633 -25.772458 -3.727063 -18.663107 26.263888 12.792560 0.000000 0.000000 0.000000 7.125000 0.000000 0.000000 7.864525 43.318895 0.328500
-11.272056 17.986124 -16.505712 173.204377 85.170737 175.284000 0.000000 0.000000 0.000000 -15.086343 -17.210594 -6.567490 1.506739 7.752651 21.965426 0.803621 4.751138 -19.308342 3.245581 -11.082319 -32.558046 0.000000 0.000000 0.000000 11.452752 -10.239296 2.449925 0.000000 0.000000 0.000000 -0.071258 -5.130659 -9.278338 -0.352478 3.813560 -10.552838 0.495559 0.322763 7.744070 1.165832 0.551803 -1.360079 0.866451 0.278901 -5.773533 -6.334649 -4.394042 -20.337771 1.740520 -3.932268 33.934752 1.165664 -1.932633 15.560910 0.000000 0.000000 0.000000 -4.059753 -0.098792 -14.030094 13.541907 -22.072264 2.656053 36.476644 -4.124134 -4.050474 0.000000 0.000000 0.000000 -7.125000 0.000000 0.000000 8.155036 34.919118 2.035757 0.000000 0.000000 0.000000 -7.308533 5.474640 17.206472 -15.979251 -25.492202 -3.637232 -18.766828 25.934456 12.896979 0.000000 0.000000 0.000000 7.125000 0.000000 0.000000 7.792786 43.438542 0.302427
-11.245192 17.986956 -16.479800 173.509860 84.959871 175.640000 0.000000 0.000000 0.000000 -15.039035 -17.553222 -6.385746 1.495387 7.724659 21.880973 0.804809 4.933358 -19.437548 3.273692 -11.125408 -32.703952 0.000000 0.000000 0.000000 11.551588 -10.488853 2.497115 0.000000 0.000000 0.000000 -0.084452 -5.049296 -9.496158 -0.331261 3.698083 -10.228872 0.476125 0.267372 7.570409 1.220094 0.478761 -1.473476 0.943772 0.244786 -5.793681 -6.291441 -4.354520 -20.362138 1.803638 -3.924364 33.784388 1.184445 -1.917181 15.493454 0.000000 0.000000 0.000000 -4.392218 -0.090234 -12.450322 12.792108 -20.976687 2.381832 36.664451 -3.265039 -4.090056 0.000000 0.000000 0.000000 -7.125000 0.000000 0.000000 8.314255 34.976292 2.064522 0.000000 0.000000 0.000000 -7.594937 5.644260 17.812683 -15.773259 -25.211859 -3.549094 -18.943817 25.568649 13.045976 0.000000 0.000000 0.000000 7.125000 0.000000 0.000000 7.664056 43.612620 0.264331
-11.218399 17.987160 -16.455841 173.819529 84.752704 175.995651 0.000000 0.000000 0.000000 -15.003415 -17.944558 -6.180625 1.485745 7.700853 21.809150 0.809243 5.136442 -19.614590 3.286103 -11.144421 -32.768387 0.000000 0.000000 0.000000 11.642504 -10.733839 2.544443 0.000000 0.000000 0.000000 -0.098518 -4.948115 -9.705603 -0.314091 3.602250 -9.960314 0.469077 0.208492 7.401318 1.269611 0.402159 -1.581674 1.009370 0.208509 -5.810583 -6.247920 -4.315381 -20.391949 1.870558 -3.918588 33.628198 1.204098 -1.902286 15.424951 0.000000 0.000000 0.000000 -4.662471 -0.030560 -10.987541 12.106195 -19.959232 2.141665 36.840499 -2.497359 -4.161389 0.000000 0.000000 0.000000 -7.125000 0.000000 0.000000 8.466601 35.072405 2.082855 0.000000 0.000000 0.000000 -7.857476 5.790817 18.313346 -15.570546 -24.934413 -3.463224 -19.137311 25.244922 13.194973 0.000000 0.000000 0.000000 7.125000 0.000000 0.000000 7.520112 43.789035 0.226549
-11.191654 17.986923 -16.433257 174.132144 84.548137 176.351057 0.000000 0.000000 0.000000 -14.976017 -18.370153 -5.959061 1.477306 7.679992 21.746211 0.815959 5.354203 -19.825278 3.287469 -11.146501 -32.775519 0.000000 0.000000 0.000000 11.727849 -10.975610 2.591870 0.000000 0.000000 0.000000 -0.113198 -4.832995 -9.909159 -0.299768 3.520233 -9.730727 0.470741 0.147158 7.235442 1.315790 0.323055 -1.686216 1.066723 0.170710 -5.825204 -6.204178 -4.276512 -20.425587 1.940153 -3.914309 33.467909 1.224364 -1.887785 15.355713 0.000000 0.000000 0.000000 -4.888968 0.065067 -9.607045 11.465217 -18.996725 1.925450 37.008276 -1.793977 -4.255054 0.000000 0.000000 0.000000 -7.125000 0.000000 0.000000 8.614112 35.195905 2.093850 0.000000 0.000000 0.000000 -8.103229 5.921152 18.739774 -15.370140 -24.659003 -3.378949 -19.342412 24.950791 13.343970 0.000000 0.000000 0.000000 7.125000 0.000000 0.000000 7.365469 43.967094 0.188987
